<?xml version="1.0" encoding="UTF-8" standalone="no"?>
<!DOCTYPE svg PUBLIC "-//W3C//DTD SVG 1.1//EN" "http://www.w3.org/Graphics/SVG/1.1/DTD/svg11.dtd">
<svg width="100%" height="100%" viewBox="0 0 394 84" version="1.1" xmlns="http://www.w3.org/2000/svg" xmlns:xlink="http://www.w3.org/1999/xlink" xml:space="preserve" xmlns:serif="http://www.serif.com/" style="fill-rule:evenodd;clip-rule:evenodd;stroke-linejoin:round;stroke-miterlimit:2;">
    <g transform="matrix(0.864655,0,0,0.864655,-1411.85,-787.288)">
        <g transform="matrix(0.115307,0,0,0.115307,1744.15,924.485)">
            <path d="M296.06,192.35L250.45,300.8C244.7,297.93 231.06,294.69 218.13,294.69C205.2,294.69 192.27,297.92 179.71,304.03C154.93,316.6 136.61,341.74 136.61,378.01L136.61,576.6L23.13,576.6L23.13,190.2L133.38,190.2L133.38,244.43L135.53,244.43C161.39,209.95 200.89,184.46 252.24,184.46C270.91,184.46 288.87,188.05 296.05,192.36L296.06,192.35Z" style="fill:white;fill-rule:nonzero;"/>
            <path d="M274.1,384.48C274.1,272.79 350.59,184.45 465.15,184.45C568.94,184.45 643.27,260.22 643.27,366.88C643.27,385.55 641.47,403.15 637.53,420.03L377.53,420.03C389.38,460.61 424.57,492.21 477.36,492.21C506.45,492.21 547.75,481.79 570.01,464.56L605.21,549.31C572.53,571.58 522.61,582.35 478.8,582.35C356.34,582.35 274.1,503.34 274.1,384.48ZM375.37,348.92L538.77,348.92C538.77,299.36 505.01,273.15 463.71,273.15C417.03,273.15 385.42,303.32 375.37,348.92Z" style="fill:white;fill-rule:nonzero;"/>
            <path d="M1617.09,16.58C1655.16,16.58 1686.4,47.82 1686.4,85.89C1686.4,123.96 1655.16,155.2 1617.09,155.2C1579.02,155.2 1547.78,123.96 1547.78,85.89C1547.78,47.82 1579.02,16.58 1617.09,16.58ZM1673.83,576.61L1560.35,576.61L1560.35,190.2L1673.83,190.2L1673.83,576.61Z" style="fill:white;fill-rule:nonzero;"/>
            <path d="M958.18,23.57L957.82,226.83L955.67,226.83C924.43,197.02 890.67,184.81 846.5,184.81C737.69,184.81 665.51,272.43 665.51,383.4C665.51,494.37 733.02,582.35 842.91,582.35C888.88,582.35 932.33,566.55 960.34,530.64L963.57,530.64L963.57,576.61L1071.66,576.61L1071.66,23.57L958.18,23.57ZM963.59,484.49L959.83,484.49L934.51,458.17C918.03,474.62 895.46,484.49 869.13,484.49C813.54,484.49 774.67,440.53 774.67,383.49C774.67,326.45 813.54,282.49 869.13,282.49C924.72,282.49 963.59,326.45 963.59,383.49L963.59,484.49Z" style="fill:white;fill-rule:nonzero;"/>
            <path d="M1391.6,23.56L1391.24,226.82L1389.09,226.82C1357.85,197.01 1324.09,184.8 1279.92,184.8C1171.11,184.8 1098.93,272.42 1098.93,383.39C1098.93,494.36 1166.44,582.34 1276.33,582.34C1322.3,582.34 1365.75,566.54 1393.76,530.63L1396.99,530.63L1396.99,576.6L1505.08,576.6L1505.08,23.56L1391.6,23.56ZM1396.47,484.48L1392.71,484.48L1367.39,458.16C1350.91,474.61 1328.34,484.48 1302.01,484.48C1246.42,484.48 1207.55,440.52 1207.55,383.48C1207.55,326.44 1246.42,282.48 1302.01,282.48C1357.6,282.48 1396.47,326.44 1396.47,383.48L1396.47,484.48Z" style="fill:white;fill-rule:nonzero;"/>
            <path d="M1893.91,190.2L1976.87,190.2L1976.87,286.8L1893.91,286.8L1893.91,576.61L1780.43,576.61L1780.43,286.8L1697.83,286.8L1697.83,190.2L1780.43,190.2L1780.43,85.16L1893.91,85.16L1893.91,190.2Z" style="fill:white;fill-rule:nonzero;"/>
        </g>
        <g transform="matrix(1.66902,0,0,1.66902,-1600.65,-619.762)">
            <g transform="matrix(50,0,0,50,2211.15,965.082)">
            </g>
            <text x="2141.68px" y="965.082px" style="font-family:'RedditSans-ExtraBold', 'Reddit Sans';font-weight:800;font-size:50px;fill:rgb(249,169,134);">l<tspan x="2154.24px 2165.43px 2183.61px " y="965.082px 965.082px 965.082px ">ite</tspan></text>
        </g>
        <g transform="matrix(0.432031,0,0,0.432031,1102.13,775.676)">
            <g transform="matrix(0.876896,0,0,0.876896,1229.43,312.123)">
                <path d="M128,0C57.31,0 0,57.31 0,128C0,163.35 14.33,195.35 37.49,218.51L13.11,242.89C8.27,247.73 11.7,256 18.54,256L128,256C198.69,256 256,198.69 256,128C256,57.31 198.69,0 128,0Z" style="fill:white;fill-rule:nonzero;"/>
            </g>
            <g transform="matrix(0.876896,0,0,0.876896,1229.43,312.123)">
                <path d="M154.04,60.36C156.26,69.77 164.71,76.78 174.8,76.78C186.58,76.78 196.13,67.23 196.13,55.45C196.13,43.67 186.58,34.12 174.8,34.12C164.5,34.12 155.91,41.42 153.91,51.13C136.66,52.98 123.19,67.61 123.19,85.34L123.19,85.45C104.43,86.24 87.3,91.58 73.7,100.01C68.65,96.1 62.31,93.77 55.43,93.77C38.92,93.77 25.54,107.15 25.54,123.66C25.54,135.64 32.58,145.96 42.75,150.73C43.74,185.43 81.55,213.34 128.06,213.34C174.57,213.34 212.43,185.4 213.37,150.67C223.46,145.87 230.44,135.58 230.44,123.67C230.44,107.16 217.06,93.78 200.55,93.78C193.7,93.78 187.39,96.09 182.35,99.97C168.63,91.48 151.31,86.14 132.36,85.43L132.36,85.35C132.36,72.65 141.8,62.11 154.04,60.38L154.04,60.36ZM72.5,142.63C73,131.79 80.2,123.47 88.57,123.47C96.94,123.47 103.34,132.26 102.84,143.1C102.34,153.94 96.09,157.88 87.71,157.88C79.33,157.88 72,153.47 72.5,142.63ZM167.56,123.47C175.94,123.47 183.14,131.79 183.63,142.63C184.13,153.47 176.79,157.88 168.42,157.88C160.05,157.88 153.79,153.95 153.29,143.1C152.79,132.26 159.18,123.47 167.56,123.47ZM157.6,167.71C159.17,167.87 160.17,169.5 159.56,170.96C154.41,183.27 142.25,191.92 128.06,191.92C113.87,191.92 101.72,183.27 96.56,170.96C95.95,169.5 96.95,167.87 98.52,167.71C107.72,166.78 117.67,166.27 128.06,166.27C138.45,166.27 148.39,166.78 157.6,167.71Z" style="fill:rgb(239,72,35);fill-rule:nonzero;"/>
            </g>
        </g>
    </g>
</svg>
