<?xml version="1.0" encoding="UTF-8" standalone="no"?>
<!DOCTYPE svg PUBLIC "-//W3C//DTD SVG 1.1//EN" "http://www.w3.org/Graphics/SVG/1.1/DTD/svg11.dtd">
<svg width="100%" height="100%" viewBox="0 0 394 84" version="1.1" xmlns="http://www.w3.org/2000/svg" xmlns:xlink="http://www.w3.org/1999/xlink" xml:space="preserve" xmlns:serif="http://www.serif.com/" style="fill-rule:evenodd;clip-rule:evenodd;stroke-linejoin:round;stroke-miterlimit:2;">
    <g transform="matrix(0.864655,0,0,0.864655,-1411.85,-787.288)">
        <g transform="matrix(0.115307,0,0,0.115307,1744.15,924.485)">
            <path d="M296.06,192.35L250.45,300.8C244.7,297.93 231.06,294.69 218.13,294.69C205.2,294.69 192.27,297.92 179.71,304.03C154.93,316.6 136.61,341.74 136.61,378.01L136.61,576.6L23.13,576.6L23.13,190.2L133.38,190.2L133.38,244.43L135.53,244.43C161.39,209.95 200.89,184.46 252.24,184.46C270.91,184.46 288.87,188.05 296.05,192.36L296.06,192.35Z" style="fill:white;fill-rule:nonzero;"/>
            <path d="M274.1,384.48C274.1,272.79 350.59,184.45 465.15,184.45C568.94,184.45 643.27,260.22 643.27,366.88C643.27,385.55 641.47,403.15 637.53,420.03L377.53,420.03C389.38,460.61 424.57,492.21 477.36,492.21C506.45,492.21 547.75,481.79 570.01,464.56L605.21,549.31C572.53,571.58 522.61,582.35 478.8,582.35C356.34,582.35 274.1,503.34 274.1,384.48ZM375.37,348.92L538.77,348.92C538.77,299.36 505.01,273.15 463.71,273.15C417.03,273.15 385.42,303.32 375.37,348.92Z" style="fill:white;fill-rule:nonzero;"/>
            <path d="M1617.09,16.58C1655.16,16.58 1686.4,47.82 1686.4,85.89C1686.4,123.96 1655.16,155.2 1617.09,155.2C1579.02,155.2 1547.78,123.96 1547.78,85.89C1547.78,47.82 1579.02,16.58 1617.09,16.58ZM1673.83,576.61L1560.35,576.61L1560.35,190.2L1673.83,190.2L1673.83,576.61Z" style="fill:white;fill-rule:nonzero;"/>
            <path d="M958.18,23.57L957.82,226.83L955.67,226.83C924.43,197.02 890.67,184.81 846.5,184.81C737.69,184.81 665.51,272.43 665.51,383.4C665.51,494.37 733.02,582.35 842.91,582.35C888.88,582.35 932.33,566.55 960.34,530.64L963.57,530.64L963.57,576.61L1071.66,576.61L1071.66,23.57L958.18,23.57ZM963.59,484.49L959.83,484.49L934.51,458.17C918.03,474.62 895.46,484.49 869.13,484.49C813.54,484.49 774.67,440.53 774.67,383.49C774.67,326.45 813.54,282.49 869.13,282.49C924.72,282.49 963.59,326.45 963.59,383.49L963.59,484.49Z" style="fill:white;fill-rule:nonzero;"/>
            <path d="M1391.6,23.56L1391.24,226.82L1389.09,226.82C1357.85,197.01 1324.09,184.8 1279.92,184.8C1171.11,184.8 1098.93,272.42 1098.93,383.39C1098.93,494.36 1166.44,582.34 1276.33,582.34C1322.3,582.34 1365.75,566.54 1393.76,530.63L1396.99,530.63L1396.99,576.6L1505.08,576.6L1505.08,23.56L1391.6,23.56ZM1396.47,484.48L1392.71,484.48L1367.39,458.16C1350.91,474.61 1328.34,484.48 1302.01,484.48C1246.42,484.48 1207.55,440.52 1207.55,383.48C1207.55,326.44 1246.42,282.48 1302.01,282.48C1357.6,282.48 1396.47,326.44 1396.47,383.48L1396.47,484.48Z" style="fill:white;fill-rule:nonzero;"/>
            <path d="M1893.91,190.2L1976.87,190.2L1976.87,286.8L1893.91,286.8L1893.91,576.61L1780.43,576.61L1780.43,286.8L1697.83,286.8L1697.83,190.2L1780.43,190.2L1780.43,85.16L1893.91,85.16L1893.91,190.2Z" style="fill:white;fill-rule:nonzero;"/>
        </g>
        <g transform="matrix(1.66902,0,0,1.66902,-1600.65,-619.762)">
            <g>
                <g transform="matrix(1,0,0,1,2141.68,965.082)">
                    <path d="M9.497,0.391C8.016,0.391 6.75,0.065 5.701,-0.586C4.651,-1.237 3.861,-2.12 3.333,-3.235C2.804,-4.35 2.539,-5.591 2.539,-6.958L2.539,-37.598L10.254,-37.598L10.254,-8.13C10.254,-7.463 10.388,-6.954 10.657,-6.604C10.925,-6.254 11.369,-6.079 11.987,-6.079C12.313,-6.079 12.671,-6.144 13.062,-6.274L13.062,-0.22C12.557,-0.024 11.991,0.126 11.365,0.232C10.738,0.338 10.116,0.391 9.497,0.391Z" style="fill:rgb(249,169,134);"/>
                </g>
                <g transform="matrix(1,0,0,1,2154.24,965.082)">
                    <path d="M2.563,-26.27L10.278,-26.27L10.278,0L2.563,0L2.563,-26.27ZM6.445,-29.297C5.566,-29.297 4.769,-29.508 4.053,-29.932C3.337,-30.355 2.771,-30.924 2.356,-31.641C1.941,-32.357 1.733,-33.146 1.733,-34.009C1.733,-34.888 1.941,-35.685 2.356,-36.401C2.771,-37.118 3.337,-37.679 4.053,-38.086C4.769,-38.493 5.566,-38.696 6.445,-38.696C7.308,-38.696 8.097,-38.489 8.813,-38.074C9.53,-37.659 10.095,-37.097 10.51,-36.389C10.925,-35.681 11.133,-34.888 11.133,-34.009C11.133,-33.146 10.925,-32.357 10.51,-31.641C10.095,-30.924 9.53,-30.355 8.813,-29.932C8.097,-29.508 7.308,-29.297 6.445,-29.297Z" style="fill:rgb(249,169,134);"/>
                </g>
                <g transform="matrix(1,0,0,1,2154.24,965.082)">
                    <path d="M25.668,0.391C23.568,0.391 21.798,-0.012 20.357,-0.818C18.917,-1.624 17.843,-2.747 17.135,-4.187C16.427,-5.627 16.073,-7.308 16.073,-9.229L16.073,-19.873L11.678,-19.873L11.678,-26.27L16.073,-26.27L16.073,-33.838L23.788,-33.838L23.788,-26.27L29.867,-26.27L29.867,-19.873L23.788,-19.873L23.788,-9.424C23.788,-8.35 24.044,-7.552 24.557,-7.031C25.069,-6.51 25.757,-6.25 26.62,-6.25C27.336,-6.25 28.019,-6.421 28.67,-6.763L31.161,-0.684C30.445,-0.342 29.602,-0.077 28.634,0.11C27.665,0.297 26.677,0.391 25.668,0.391Z" style="fill:rgb(249,169,134);"/>
                </g>
                <g transform="matrix(1,0,0,1,2154.24,965.082)">
                    <path d="M44.482,0.391C41.683,0.391 39.233,-0.179 37.134,-1.318C35.034,-2.458 33.415,-4.049 32.275,-6.091C31.136,-8.134 30.566,-10.457 30.566,-13.062C30.566,-15.747 31.152,-18.119 32.324,-20.178C33.496,-22.237 35.071,-23.828 37.048,-24.951C39.026,-26.074 41.195,-26.636 43.555,-26.636C45.817,-26.636 47.868,-26.119 49.707,-25.085C51.546,-24.052 52.999,-22.599 54.065,-20.728C55.131,-18.856 55.664,-16.724 55.664,-14.331C55.664,-13.013 55.534,-11.784 55.273,-10.645L37.598,-10.645C38.053,-9.131 38.883,-7.935 40.088,-7.056C41.292,-6.177 42.724,-5.737 44.385,-5.737C45.54,-5.737 46.72,-5.924 47.925,-6.299C49.129,-6.673 50.049,-7.113 50.683,-7.617L53.076,-1.855C52.067,-1.172 50.806,-0.627 49.292,-0.22C47.778,0.187 46.175,0.391 44.482,0.391ZM48.559,-15.479C48.559,-16.52 48.344,-17.428 47.912,-18.201C47.481,-18.974 46.879,-19.568 46.106,-19.983C45.333,-20.398 44.45,-20.605 43.457,-20.605C41.894,-20.605 40.588,-20.138 39.538,-19.202C38.489,-18.266 37.793,-17.025 37.451,-15.479L48.559,-15.479Z" style="fill:rgb(249,169,134);"/>
                </g>
            </g>
        </g>
        <g transform="matrix(0.432031,0,0,0.432031,1102.13,775.676)">
            <g transform="matrix(0.876896,0,0,0.876896,1229.43,312.123)">
                <path d="M128,0C57.31,0 0,57.31 0,128C0,163.35 14.33,195.35 37.49,218.51L13.11,242.89C8.27,247.73 11.7,256 18.54,256L128,256C198.69,256 256,198.69 256,128C256,57.31 198.69,0 128,0Z" style="fill:white;fill-rule:nonzero;"/>
            </g>
            <g transform="matrix(0.876896,0,0,0.876896,1229.43,312.123)">
                <path d="M154.04,60.36C156.26,69.77 164.71,76.78 174.8,76.78C186.58,76.78 196.13,67.23 196.13,55.45C196.13,43.67 186.58,34.12 174.8,34.12C164.5,34.12 155.91,41.42 153.91,51.13C136.66,52.98 123.19,67.61 123.19,85.34L123.19,85.45C104.43,86.24 87.3,91.58 73.7,100.01C68.65,96.1 62.31,93.77 55.43,93.77C38.92,93.77 25.54,107.15 25.54,123.66C25.54,135.64 32.58,145.96 42.75,150.73C43.74,185.43 81.55,213.34 128.06,213.34C174.57,213.34 212.43,185.4 213.37,150.67C223.46,145.87 230.44,135.58 230.44,123.67C230.44,107.16 217.06,93.78 200.55,93.78C193.7,93.78 187.39,96.09 182.35,99.97C168.63,91.48 151.31,86.14 132.36,85.43L132.36,85.35C132.36,72.65 141.8,62.11 154.04,60.38L154.04,60.36ZM72.5,142.63C73,131.79 80.2,123.47 88.57,123.47C96.94,123.47 103.34,132.26 102.84,143.1C102.34,153.94 96.09,157.88 87.71,157.88C79.33,157.88 72,153.47 72.5,142.63ZM167.56,123.47C175.94,123.47 183.14,131.79 183.63,142.63C184.13,153.47 176.79,157.88 168.42,157.88C160.05,157.88 153.79,153.95 153.29,143.1C152.79,132.26 159.18,123.47 167.56,123.47ZM157.6,167.71C159.17,167.87 160.17,169.5 159.56,170.96C154.41,183.27 142.25,191.92 128.06,191.92C113.87,191.92 101.72,183.27 96.56,170.96C95.95,169.5 96.95,167.87 98.52,167.71C107.72,166.78 117.67,166.27 128.06,166.27C138.45,166.27 148.39,166.78 157.6,167.71Z" style="fill:rgb(239,72,35);fill-rule:nonzero;"/>
            </g>
        </g>
    </g>
</svg>
